[center][img]http://img62.imageshack.us/img62/3268/d32883bfvfzvk731l.jpg[/img]



[img]http://leetleech.org/images/48874973695367351744.png[/img]


Format                           : AVI
Format/Info                      : Audio Video Interleave
File size                        : 1.32 GiB
Duration                         : 1h 45mn
Overall bit rate                 : 1 787 Kbps
Writing application              : Absurditys Hyper XviD
Writing library                  : VirtualDub build 32839/release
Copyright                        : By AbSurDity

Video
ID                               : 0
Format                           : MPEG-4 Visual
Format profile                   : Advanced Simple@L5
Format settings, BVOP            : Yes
Format settings, QPel            : No
Format settings, GMC             : No warppoints
Format settings, Matrix          : Custom
Codec ID                         : XVID
Codec ID/Hint                    : XviD
Duration                         : 1h 45mn
Bit rate                         : 1 394 Kbps
Width                            : 720 pixels
Height                           : 400 pixels
Display aspect ratio             : 16:9
Frame rate                       : 23.976 fps
Color space                      : YUV
Chroma subsampling               : 4:2:0
Bit depth                        : 8 bits
Scan type                        : Progressive
Bits/(Pixel*Frame)               : 0.202
Stream size                      : 1.03 GiB (78%)
Writing library                  : XviD 1.2.1 (UTC 2008-12-04)

Audio
ID                               : 1
Format                           : AC-3
Format/Info                      : Audio Coding 3
Mode extension                   : CM (complete main)
Codec ID                         : 2000
Duration                         : 1h 45mn
Bit rate mode                    : Constant
Bit rate                         : 384 Kbps
Channel(s)                       : 6 channels
Channel positions                : Front: L C R, Side: L R, LFE
Sampling rate                    : 48.0 KHz
Bit depth                        : 16 bits
Stream size                      : 291 MiB (21%)
Alignment                        : Split accross interleaves
Interleave, duration             : 42 ms (1.00 video frame)
Interleave, preload duration     : 500 ms




[url]http://www.imdb.com/title/tt0881320/[/url]




[IMG]http://leetleech.org/images/89524873606771859129.png[/IMG]



Users: 5.6/10 (7,704 votes) 106 reviews | Critics: 175 reviews Metascore: 42/100 (based on 33 reviews from Metacritic.com)

An underwater cave diving team experiences a life-threatening crisis during an expedition to the unexplored and least accessible cave system in the world.
Director:
Alister Grierson
Writers:
John Garvin (screenplay), Andrew Wight (screenplay), and 1 more credit »
Stars:
Rhys Wakefield, Allison Cratchley and Christopher Baker



[img]http://leetleech.org/images/95521316153253938506.png[/img]




[img]http://img34.imageshack.us/img34/766/vlcsnap2011042116h49m23.png[/img]

[img]http://img819.imageshack.us/img819/84/vlcsnap2011042116h48m29.png[/img]

[img]http://img705.imageshack.us/img705/8238/vlcsnap2011042116h48m34.png[/img]


Source .. Bluray 




Greetz to Imagine ,Flawl3ss,DiLLoN,BDK,NOiR,TOXiCiNK,THC,Ez,Rx,Boobyblue





[img]http://img411.imageshack.us/img411/6898/sig1n.jpg[/img]












[/center]